<svg width="445" height="150" viewBox="0 0 445 150" fill="none" xmlns="http://www.w3.org/2000/svg">
<rect x="0.5" y="0.5" width="149" height="149" rx="29.5" fill="url(#paint0_linear_16_18619)" stroke="#E6E6E6"/>
<path d="M185.88 98.2C188.867 98.2 191.133 98.04 192.68 97.72V87C192.147 86.84 191.373 86.68 190.36 86.52C189.347 86.36 188.227 86.28 187 86.28C185.933 86.28 184.84 86.36 183.72 86.52C182.653 86.68 181.667 86.9733 180.76 87.4C179.907 87.8267 179.213 88.44 178.68 89.24C178.147 89.9867 177.88 90.9467 177.88 92.12C177.88 94.4133 178.6 96.0133 180.04 96.92C181.48 97.7733 183.427 98.2 185.88 98.2ZM185.08 62.12C188.28 62.12 190.973 62.52 193.16 63.32C195.347 64.12 197.08 65.24 198.36 66.68C199.693 68.12 200.627 69.88 201.16 71.96C201.747 73.9867 202.04 76.2267 202.04 78.68V104.04C200.547 104.36 198.28 104.733 195.24 105.16C192.253 105.64 188.867 105.88 185.08 105.88C182.573 105.88 180.28 105.64 178.2 105.16C176.12 104.68 174.333 103.907 172.84 102.84C171.4 101.773 170.253 100.387 169.4 98.68C168.6 96.9733 168.2 94.8667 168.2 92.36C168.2 89.96 168.653 87.9333 169.56 86.28C170.52 84.6267 171.8 83.2933 173.4 82.28C175 81.2133 176.84 80.4667 178.92 80.04C181.053 79.56 183.267 79.32 185.56 79.32C186.627 79.32 187.747 79.4 188.92 79.56C190.093 79.6667 191.347 79.88 192.68 80.2V78.6C192.68 77.48 192.547 76.4133 192.28 75.4C192.013 74.3867 191.533 73.5067 190.84 72.76C190.2 71.96 189.32 71.3467 188.2 70.92C187.133 70.4933 185.773 70.28 184.12 70.28C181.88 70.28 179.827 70.44 177.96 70.76C176.093 71.08 174.573 71.4533 173.4 71.88L172.2 64.04C173.427 63.6133 175.213 63.1867 177.56 62.76C179.907 62.3333 182.413 62.12 185.08 62.12ZM215.894 83C215.894 87.1067 216.774 90.12 218.534 92.04C220.348 93.9067 222.668 94.84 225.494 94.84C227.041 94.84 228.481 94.6267 229.814 94.2C231.201 93.7733 232.321 93.2667 233.174 92.68V71C232.481 70.84 231.628 70.7067 230.614 70.6C229.601 70.44 228.321 70.36 226.774 70.36C223.254 70.36 220.561 71.5333 218.694 73.88C216.828 76.1733 215.894 79.2133 215.894 83ZM242.854 100.76C242.854 107.427 241.148 112.307 237.734 115.4C234.374 118.493 229.201 120.04 222.214 120.04C219.654 120.04 217.148 119.827 214.694 119.4C212.294 118.973 210.108 118.413 208.134 117.72L209.894 109.48C211.548 110.173 213.414 110.733 215.494 111.16C217.628 111.587 219.921 111.8 222.374 111.8C226.268 111.8 229.041 111 230.694 109.4C232.348 107.8 233.174 105.427 233.174 102.28V100.68C232.214 101.16 230.934 101.64 229.334 102.12C227.788 102.6 226.001 102.84 223.974 102.84C221.308 102.84 218.854 102.413 216.614 101.56C214.428 100.707 212.534 99.4533 210.934 97.8C209.388 96.1467 208.161 94.0933 207.254 91.64C206.401 89.1333 205.974 86.2533 205.974 83C205.974 79.96 206.428 77.16 207.334 74.6C208.294 72.04 209.654 69.8533 211.414 68.04C213.228 66.2267 215.414 64.8133 217.974 63.8C220.534 62.7867 223.441 62.28 226.694 62.28C229.841 62.28 232.828 62.52 235.654 63C238.481 63.48 240.881 63.9867 242.854 64.52V100.76ZM247.249 84.28C247.249 80.6 247.783 77.3733 248.849 74.6C249.969 71.8267 251.436 69.5333 253.249 67.72C255.063 65.8533 257.143 64.4667 259.489 63.56C261.836 62.6 264.236 62.12 266.689 62.12C272.449 62.12 276.929 63.9067 280.129 67.48C283.383 71.0533 285.009 76.3867 285.009 83.48C285.009 84.0133 284.983 84.6267 284.929 85.32C284.929 85.96 284.903 86.5467 284.849 87.08H257.249C257.516 90.44 258.689 93.0533 260.769 94.92C262.903 96.7333 265.969 97.64 269.969 97.64C272.316 97.64 274.449 97.4267 276.369 97C278.343 96.5733 279.889 96.12 281.009 95.64L282.289 103.56C281.756 103.827 281.009 104.12 280.049 104.44C279.143 104.707 278.076 104.947 276.849 105.16C275.676 105.427 274.396 105.64 273.009 105.8C271.623 105.96 270.209 106.04 268.769 106.04C265.089 106.04 261.889 105.507 259.169 104.44C256.449 103.32 254.209 101.8 252.449 99.88C250.689 97.9067 249.383 95.6133 248.529 93C247.676 90.3333 247.249 87.4267 247.249 84.28ZM275.329 79.96C275.329 78.6267 275.143 77.3733 274.769 76.2C274.396 74.9733 273.836 73.9333 273.089 73.08C272.396 72.1733 271.516 71.48 270.449 71C269.436 70.4667 268.209 70.2 266.769 70.2C265.276 70.2 263.969 70.4933 262.849 71.08C261.729 71.6133 260.769 72.3333 259.969 73.24C259.223 74.1467 258.636 75.1867 258.209 76.36C257.783 77.5333 257.489 78.7333 257.329 79.96H275.329ZM289.672 64.52C291.539 63.9867 293.966 63.48 296.952 63C299.939 62.52 303.246 62.28 306.872 62.28C310.286 62.28 313.139 62.76 315.432 63.72C317.726 64.6267 319.539 65.9333 320.872 67.64C322.259 69.2933 323.219 71.32 323.752 73.72C324.339 76.0667 324.632 78.6533 324.632 81.48V105H314.952V83C314.952 80.76 314.792 78.8667 314.472 77.32C314.206 75.72 313.726 74.44 313.032 73.48C312.392 72.4667 311.486 71.7467 310.312 71.32C309.192 70.84 307.806 70.6 306.152 70.6C304.926 70.6 303.646 70.68 302.312 70.84C300.979 71 299.992 71.1333 299.352 71.24V105H289.672V64.52ZM338.469 83.96C338.469 88.2267 339.483 91.5867 341.509 94.04C343.536 96.44 346.336 97.64 349.909 97.64C351.456 97.64 352.763 97.5867 353.829 97.48C354.949 97.32 355.856 97.16 356.549 97V73C355.696 72.4133 354.549 71.88 353.109 71.4C351.723 70.8667 350.229 70.6 348.629 70.6C345.109 70.6 342.523 71.8 340.869 74.2C339.269 76.6 338.469 79.8533 338.469 83.96ZM366.229 103.72C364.309 104.307 361.883 104.84 358.949 105.32C356.069 105.8 353.029 106.04 349.829 106.04C346.523 106.04 343.563 105.533 340.949 104.52C338.336 103.507 336.096 102.067 334.229 100.2C332.416 98.28 331.003 95.9867 329.989 93.32C329.029 90.6 328.549 87.56 328.549 84.2C328.549 80.8933 328.949 77.9067 329.749 75.24C330.603 72.52 331.829 70.2 333.429 68.28C335.029 66.36 336.976 64.8933 339.269 63.88C341.563 62.8133 344.203 62.28 347.189 62.28C349.216 62.28 351.003 62.52 352.549 63C354.096 63.48 355.429 64.0133 356.549 64.6V44.52L366.229 42.92V103.72ZM387.646 98.2C390.632 98.2 392.899 98.04 394.446 97.72V87C393.912 86.84 393.139 86.68 392.126 86.52C391.112 86.36 389.992 86.28 388.766 86.28C387.699 86.28 386.606 86.36 385.486 86.52C384.419 86.68 383.432 86.9733 382.526 87.4C381.672 87.8267 380.979 88.44 380.446 89.24C379.912 89.9867 379.646 90.9467 379.646 92.12C379.646 94.4133 380.366 96.0133 381.806 96.92C383.246 97.7733 385.192 98.2 387.646 98.2ZM386.846 62.12C390.046 62.12 392.739 62.52 394.926 63.32C397.112 64.12 398.846 65.24 400.126 66.68C401.459 68.12 402.392 69.88 402.926 71.96C403.512 73.9867 403.806 76.2267 403.806 78.68V104.04C402.312 104.36 400.046 104.733 397.006 105.16C394.019 105.64 390.632 105.88 386.846 105.88C384.339 105.88 382.046 105.64 379.966 105.16C377.886 104.68 376.099 103.907 374.606 102.84C373.166 101.773 372.019 100.387 371.166 98.68C370.366 96.9733 369.966 94.8667 369.966 92.36C369.966 89.96 370.419 87.9333 371.326 86.28C372.286 84.6267 373.566 83.2933 375.166 82.28C376.766 81.2133 378.606 80.4667 380.686 80.04C382.819 79.56 385.032 79.32 387.326 79.32C388.392 79.32 389.512 79.4 390.686 79.56C391.859 79.6667 393.112 79.88 394.446 80.2V78.6C394.446 77.48 394.312 76.4133 394.046 75.4C393.779 74.3867 393.299 73.5067 392.606 72.76C391.966 71.96 391.086 71.3467 389.966 70.92C388.899 70.4933 387.539 70.28 385.886 70.28C383.646 70.28 381.592 70.44 379.726 70.76C377.859 71.08 376.339 71.4533 375.166 71.88L373.966 64.04C375.192 63.6133 376.979 63.1867 379.326 62.76C381.672 62.3333 384.179 62.12 386.846 62.12ZM443.204 63.16C438.884 79.0533 433.871 93.4533 428.164 106.36C427.098 108.76 426.004 110.813 424.884 112.52C423.764 114.227 422.511 115.64 421.124 116.76C419.738 117.88 418.191 118.68 416.484 119.16C414.778 119.693 412.804 119.96 410.564 119.96C409.071 119.96 407.578 119.8 406.084 119.48C404.644 119.16 403.551 118.813 402.804 118.44L404.564 110.68C406.484 111.427 408.378 111.8 410.244 111.8C412.751 111.8 414.698 111.187 416.084 109.96C417.524 108.787 418.778 106.947 419.844 104.44C416.804 98.5733 413.871 92.1733 411.044 85.24C408.271 78.3067 405.791 70.9467 403.604 63.16H413.924C414.458 65.4 415.098 67.8267 415.844 70.44C416.644 73.0533 417.498 75.72 418.404 78.44C419.311 81.1067 420.271 83.7733 421.284 86.44C422.298 89.1067 423.311 91.5867 424.324 93.88C426.031 89.1333 427.631 84.0933 429.124 78.76C430.618 73.3733 431.978 68.1733 433.204 63.16H443.204Z" fill="white"/>
<path d="M49.4081 33.8139C50.1546 31.1552 52.9983 29 55.7597 29H97.4928C100.254 29 101.888 31.1552 101.141 33.8138L78.0851 115.929C77.3386 118.588 74.4949 120.743 71.7335 120.743H30.0003C27.2389 120.743 25.6055 118.588 26.352 115.929L49.4081 33.8139Z" fill="url(#paint1_linear_16_18619)"/>
<path d="M52.1118 33.8139C51.3653 31.1552 52.9987 29 55.7601 29H97.4933C100.255 29 103.098 31.1552 103.845 33.8138L123.649 104.348C124.396 107.006 122.762 109.161 120.001 109.161H78.2676C75.5062 109.161 72.6625 107.006 71.916 104.348L52.1118 33.8139Z" fill="url(#paint2_linear_16_18619)"/>
<defs>
<linearGradient id="paint0_linear_16_18619" x1="152.5" y1="2.49999" x2="-8.33586e-06" y2="145.5" gradientUnits="userSpaceOnUse">
<stop stop-color="#EBEAEA"/>
<stop offset="1" stop-color="#FAF9F9"/>
</linearGradient>
<linearGradient id="paint1_linear_16_18619" x1="41.0004" y1="33" x2="85.2225" y2="108.583" gradientUnits="userSpaceOnUse">
<stop stop-color="#1D2939"/>
<stop offset="1" stop-color="#475467"/>
</linearGradient>
<linearGradient id="paint2_linear_16_18619" x1="121.501" y1="45.5" x2="71.0494" y2="16.8344" gradientUnits="userSpaceOnUse">
<stop stop-color="#6941C6"/>
<stop offset="1" stop-color="#7F56D9"/>
</linearGradient>
</defs>
</svg>
