<svg width="338" height="92" viewBox="0 0 338 92" fill="none" xmlns="http://www.w3.org/2000/svg">
<path d="M24.4077 4.81385C25.1542 2.15524 27.9979 0 30.7594 0H72.4925C75.2539 0 76.8874 2.15523 76.1409 4.81385L53.0848 86.9293C52.3383 89.5879 49.4946 91.7431 46.7331 91.7431H5C2.23858 91.7431 0.605146 89.5879 1.35162 86.9293L24.4077 4.81385Z" fill="url(#paint0_linear_16_18620)"/>
<path d="M27.1114 4.81385C26.3649 2.15524 27.9983 0 30.7598 0H72.4929C75.2543 0 78.098 2.15523 78.8445 4.81385L98.6488 75.3476C99.3953 78.0062 97.7618 80.1615 95.0004 80.1615H53.2673C50.5058 80.1615 47.6621 78.0062 46.9156 75.3476L27.1114 4.81385Z" fill="url(#paint1_linear_16_18620)"/>
<path d="M142.697 62.8879C144.942 62.8879 146.646 62.7676 147.809 62.527V54.4679C147.408 54.3476 146.827 54.2273 146.065 54.107C145.303 53.9867 144.461 53.9266 143.539 53.9266C142.737 53.9266 141.915 53.9867 141.073 54.107C140.271 54.2273 139.529 54.4478 138.848 54.7686C138.206 55.0893 137.685 55.5504 137.284 56.1519C136.883 56.7132 136.683 57.4349 136.683 58.317C136.683 60.0411 137.224 61.244 138.306 61.9256C139.389 62.5671 140.852 62.8879 142.697 62.8879ZM142.095 35.7635C144.501 35.7635 146.526 36.0642 148.17 36.6656C149.814 37.267 151.117 38.109 152.079 39.1916C153.082 40.2742 153.783 41.5973 154.184 43.161C154.625 44.6846 154.846 46.3686 154.846 48.213V67.2783C153.723 67.5189 152.019 67.7995 149.734 68.1203C147.488 68.4811 144.942 68.6616 142.095 68.6616C140.211 68.6616 138.487 68.4811 136.923 68.1203C135.359 67.7594 134.016 67.178 132.894 66.3761C131.811 65.5742 130.949 64.5318 130.307 63.2487C129.706 61.9657 129.405 60.3819 129.405 58.4974C129.405 56.6932 129.746 55.1695 130.428 53.9266C131.149 52.6836 132.112 51.6813 133.315 50.9195C134.517 50.1175 135.901 49.5562 137.464 49.2355C139.068 48.8746 140.732 48.6942 142.456 48.6942C143.258 48.6942 144.1 48.7543 144.982 48.8746C145.864 48.9548 146.807 49.1152 147.809 49.3557V48.1529C147.809 47.3109 147.709 46.509 147.508 45.7472C147.308 44.9854 146.947 44.3238 146.426 43.7625C145.945 43.161 145.283 42.6999 144.441 42.3792C143.639 42.0584 142.617 41.898 141.374 41.898C139.69 41.898 138.146 42.0183 136.743 42.2589C135.339 42.4995 134.197 42.7801 133.315 43.1009L132.412 37.2069C133.335 36.8861 134.678 36.5654 136.442 36.2446C138.206 35.9239 140.091 35.7635 142.095 35.7635ZM165.261 51.4607C165.261 54.5481 165.923 56.8134 167.246 58.2569C168.609 59.6602 170.353 60.3619 172.478 60.3619C173.641 60.3619 174.724 60.2015 175.726 59.8807C176.769 59.56 177.611 59.1791 178.252 58.738V42.4393C177.731 42.319 177.089 42.2188 176.327 42.1386C175.566 42.0183 174.603 41.9582 173.441 41.9582C170.794 41.9582 168.77 42.8403 167.366 44.6045C165.963 46.3286 165.261 48.614 165.261 51.4607ZM185.529 64.8124C185.529 69.8243 184.246 73.493 181.68 75.8186C179.154 78.1441 175.265 79.3068 170.012 79.3068C168.088 79.3068 166.203 79.1465 164.359 78.8257C162.555 78.5049 160.911 78.0839 159.427 77.5627L160.751 71.368C161.993 71.8892 163.397 72.3102 164.961 72.631C166.564 72.9518 168.288 73.1121 170.133 73.1121C173.06 73.1121 175.145 72.5107 176.388 71.3079C177.631 70.105 178.252 68.3208 178.252 65.9551V64.7523C177.53 65.1131 176.568 65.474 175.365 65.8349C174.202 66.1957 172.859 66.3761 171.336 66.3761C169.331 66.3761 167.486 66.0554 165.802 65.4139C164.159 64.7723 162.735 63.8301 161.532 62.5871C160.37 61.3442 159.447 59.8005 158.766 57.9562C158.124 56.0717 157.804 53.9065 157.804 51.4607C157.804 49.1753 158.144 47.0703 158.826 45.1457C159.548 43.2212 160.57 41.5773 161.893 40.214C163.256 38.8508 164.9 37.7883 166.825 37.0265C168.749 36.2647 170.935 35.8838 173.38 35.8838C175.746 35.8838 177.991 36.0642 180.116 36.425C182.242 36.7859 184.046 37.1668 185.529 37.5678V64.8124ZM188.833 52.423C188.833 49.6565 189.234 47.2307 190.036 45.1457C190.878 43.0608 191.981 41.3367 193.344 39.9735C194.707 38.5701 196.271 37.5277 198.035 36.846C199.799 36.1243 201.604 35.7635 203.448 35.7635C207.778 35.7635 211.146 37.1067 213.552 39.793C215.998 42.4794 217.221 46.4889 217.221 51.8216C217.221 52.2225 217.201 52.6836 217.161 53.2049C217.161 53.686 217.141 54.1271 217.101 54.528H196.351C196.552 57.054 197.434 59.0187 198.998 60.422C200.601 61.7852 202.907 62.4669 205.914 62.4669C207.678 62.4669 209.282 62.3065 210.725 61.9857C212.209 61.665 213.372 61.3242 214.214 60.9633L215.176 66.9174C214.775 67.1179 214.214 67.3384 213.492 67.579C212.81 67.7795 212.008 67.9599 211.086 68.1203C210.204 68.3208 209.242 68.4811 208.199 68.6014C207.157 68.7217 206.094 68.7819 205.012 68.7819C202.245 68.7819 199.84 68.3809 197.795 67.579C195.75 66.737 194.066 65.5943 192.743 64.1509C191.42 62.6673 190.437 60.9432 189.796 58.9786C189.154 56.9738 188.833 54.7886 188.833 52.423ZM209.944 49.1753C209.944 48.1729 209.803 47.2307 209.523 46.3486C209.242 45.4264 208.821 44.6446 208.26 44.003C207.738 43.3214 207.077 42.8002 206.275 42.4393C205.513 42.0384 204.591 41.8379 203.508 41.8379C202.386 41.8379 201.403 42.0584 200.561 42.4995C199.719 42.9004 198.998 43.4417 198.396 44.1233C197.835 44.8049 197.394 45.5868 197.073 46.4689C196.752 47.351 196.532 48.2531 196.411 49.1753H209.944ZM220.726 37.5678C222.13 37.1668 223.954 36.7859 226.199 36.425C228.445 36.0642 230.931 35.8838 233.657 35.8838C236.223 35.8838 238.368 36.2446 240.092 36.9663C241.817 37.6479 243.18 38.6303 244.182 39.9133C245.225 41.1563 245.946 42.6799 246.347 44.4842C246.788 46.2484 247.009 48.193 247.009 50.318V68H239.732V51.4607C239.732 49.7767 239.611 48.3534 239.371 47.1906C239.17 45.9877 238.809 45.0255 238.288 44.3037C237.807 43.5419 237.125 43.0007 236.243 42.6799C235.401 42.319 234.359 42.1386 233.116 42.1386C232.194 42.1386 231.231 42.1987 230.229 42.319C229.227 42.4393 228.485 42.5396 228.004 42.6197V68H220.726V37.5678ZM257.411 52.1824C257.411 55.3901 258.173 57.9161 259.697 59.7604C261.22 61.5647 263.325 62.4669 266.012 62.4669C267.174 62.4669 268.157 62.4268 268.959 62.3466C269.801 62.2263 270.482 62.106 271.003 61.9857V43.9429C270.362 43.5018 269.5 43.1009 268.417 42.74C267.375 42.3391 266.252 42.1386 265.049 42.1386C262.403 42.1386 260.458 43.0407 259.216 44.845C258.013 46.6493 257.411 49.0951 257.411 52.1824ZM278.281 67.0377C276.837 67.4788 275.013 67.8797 272.808 68.2406C270.643 68.6014 268.357 68.7819 265.951 68.7819C263.466 68.7819 261.24 68.401 259.276 67.6391C257.311 66.8773 255.627 65.7948 254.224 64.3914C252.86 62.948 251.798 61.2239 251.036 59.2192C250.314 57.1743 249.954 54.8889 249.954 52.3629C249.954 49.877 250.254 47.6316 250.856 45.6269C251.497 43.582 252.419 41.8379 253.622 40.3945C254.825 38.951 256.289 37.8484 258.013 37.0866C259.737 36.2847 261.721 35.8838 263.967 35.8838C265.49 35.8838 266.834 36.0642 267.996 36.425C269.159 36.7859 270.161 37.1868 271.003 37.6279V22.5321L278.281 21.3292V67.0377ZM294.381 62.8879C296.627 62.8879 298.331 62.7676 299.493 62.527V54.4679C299.092 54.3476 298.511 54.2273 297.749 54.107C296.987 53.9867 296.145 53.9266 295.223 53.9266C294.421 53.9266 293.599 53.9867 292.757 54.107C291.955 54.2273 291.214 54.4478 290.532 54.7686C289.891 55.0893 289.369 55.5504 288.968 56.1519C288.567 56.7132 288.367 57.4349 288.367 58.317C288.367 60.0411 288.908 61.244 289.991 61.9256C291.073 62.5671 292.537 62.8879 294.381 62.8879ZM293.78 35.7635C296.185 35.7635 298.21 36.0642 299.854 36.6656C301.498 37.267 302.801 38.109 303.763 39.1916C304.766 40.2742 305.467 41.5973 305.868 43.161C306.309 44.6846 306.53 46.3686 306.53 48.213V67.2783C305.407 67.5189 303.703 67.7995 301.418 68.1203C299.173 68.4811 296.627 68.6616 293.78 68.6616C291.895 68.6616 290.171 68.4811 288.607 68.1203C287.044 67.7594 285.701 67.178 284.578 66.3761C283.495 65.5742 282.633 64.5318 281.992 63.2487C281.39 61.9657 281.09 60.3819 281.09 58.4974C281.09 56.6932 281.43 55.1695 282.112 53.9266C282.834 52.6836 283.796 51.6813 284.999 50.9195C286.202 50.1175 287.585 49.5562 289.149 49.2355C290.753 48.8746 292.417 48.6942 294.141 48.6942C294.943 48.6942 295.785 48.7543 296.667 48.8746C297.549 48.9548 298.491 49.1152 299.493 49.3557V48.1529C299.493 47.3109 299.393 46.509 299.193 45.7472C298.992 44.9854 298.631 44.3238 298.11 43.7625C297.629 43.161 296.967 42.6999 296.125 42.3792C295.323 42.0584 294.301 41.898 293.058 41.898C291.374 41.898 289.83 42.0183 288.427 42.2589C287.024 42.4995 285.881 42.7801 284.999 43.1009L284.097 37.2069C285.019 36.8861 286.362 36.5654 288.126 36.2446C289.891 35.9239 291.775 35.7635 293.78 35.7635ZM336.149 36.5453C332.902 48.4937 329.133 59.3194 324.843 69.0224C324.041 70.8267 323.219 72.3704 322.377 73.6534C321.535 74.9365 320.592 75.999 319.55 76.841C318.508 77.683 317.345 78.2844 316.062 78.6453C314.779 79.0462 313.295 79.2467 311.611 79.2467C310.488 79.2467 309.366 79.1264 308.243 78.8858C307.161 78.6453 306.339 78.3847 305.777 78.104L307.1 72.2701C308.544 72.8315 309.967 73.1121 311.371 73.1121C313.255 73.1121 314.719 72.651 315.761 71.7289C316.844 70.8468 317.786 69.4635 318.588 67.579C316.302 63.1685 314.097 58.3571 311.972 53.1447C309.887 47.9324 308.023 42.3992 306.379 36.5453H314.137C314.538 38.2293 315.019 40.0537 315.581 42.0183C316.182 43.983 316.824 45.9877 317.505 48.0326C318.187 50.0374 318.908 52.0421 319.67 54.0469C320.432 56.0516 321.194 57.9161 321.956 59.6402C323.239 56.0717 324.442 52.2827 325.564 48.2732C326.687 44.2236 327.709 40.3143 328.632 36.5453H336.149Z" fill="#1E1E1E"/>
<defs>
<linearGradient id="paint0_linear_16_18620" x1="16" y1="4" x2="60.2221" y2="79.5834" gradientUnits="userSpaceOnUse">
<stop stop-color="#1D2939"/>
<stop offset="1" stop-color="#475467"/>
</linearGradient>
<linearGradient id="paint1_linear_16_18620" x1="96.5004" y1="16.5" x2="46.049" y2="-12.1656" gradientUnits="userSpaceOnUse">
<stop stop-color="#6941C6"/>
<stop offset="1" stop-color="#7F56D9"/>
</linearGradient>
</defs>
</svg>
